HIERARCHY
ROOT Hips
{
 OFFSET 0.000000 0.000000 0.000000
 CHANNELS 6 Xposition Yposition Zposition Yrotation Xrotation Zrotation
 JOINT Chest
 {
  OFFSET 0.000000 14.067100 -0.020500
  CHANNELS 3 Yrotation Xrotation Zrotation
  JOINT Chest2
  {
   OFFSET 0.000000 9.717300 0.041800
   CHANNELS 3 Yrotation Xrotation Zrotation
   JOINT Chest3
   {
    OFFSET 0.000000 9.672600 0.000000
    CHANNELS 3 Yrotation Xrotation Zrotation
    JOINT Chest4
    {
     OFFSET 0.000000 9.662700 0.000000
     CHANNELS 3 Yrotation Xrotation Zrotation
     JOINT Neck
     {
      OFFSET 0.000000 14.815200 0.000000
      CHANNELS 3 Yrotation Xrotation Zrotation
      JOINT Head
      {
       OFFSET 0.000000 9.056800 0.088400
       CHANNELS 3 Yrotation Xrotation Zrotation
       End Site
       {
        OFFSET 0.000000 17.018200 0.046700
       }
      }
     }
     JOINT RightCollar
     {
      OFFSET -3.269500 9.872600 0.000000
      CHANNELS 3 Yrotation Xrotation Zrotation
      JOINT RightShoulder
      {
       OFFSET -15.850600 0.000000 0.000000
       CHANNELS 3 Yrotation Xrotation Zrotation
       JOINT RightElbow
       {
        OFFSET 0.000000 -29.117400 0.000000
        CHANNELS 3 Yrotation Xrotation Zrotation
        JOINT RightWrist
        {
         OFFSET 0.000000 -23.969300 0.014600
         CHANNELS 3 Yrotation Xrotation Zrotation
         End Site
         {
          OFFSET 0.000000 -18.039300 0.000000
         }
        }
       }
      }
     }
     JOINT LeftCollar
     {
      OFFSET 3.269500 9.872600 0.000000
      CHANNELS 3 Yrotation Xrotation Zrotation
      JOINT LeftShoulder
      {
       OFFSET 15.850600 0.000000 0.000000
       CHANNELS 3 Yrotation Xrotation Zrotation
       JOINT LeftElbow
       {
        OFFSET 0.000000 -29.117400 0.000000
        CHANNELS 3 Yrotation Xrotation Zrotation
        JOINT LeftWrist
        {
         OFFSET 0.000000 -23.969300 0.014600
         CHANNELS 3 Yrotation Xrotation Zrotation
         End Site
         {
          OFFSET 0.000000 -18.039300 0.000000
         }
        }
       }
      }
     }
    }
   }
  }
 }
 JOINT RightHip
 {
  OFFSET -11.600400 0.101300 0.010200
  CHANNELS 3 Yrotation Xrotation Zrotation
  JOINT RightKnee
  {
   OFFSET 0.000000 -45.913300 -0.001400
   CHANNELS 3 Yrotation Xrotation Zrotation
   JOINT RightAnkle
   {
    OFFSET 0.000000 -46.966900 0.018600
    CHANNELS 3 Yrotation Xrotation Zrotation
    JOINT RightToe
    {
     OFFSET 0.000000 -10.064300 17.850900
     CHANNELS 3 Yrotation Xrotation Zrotation
     End Site
     {
      OFFSET 0.000000 -1.607600 6.976100
     }
    }
   }
  }
 }
 JOINT LeftHip
 {
  OFFSET 11.600400 0.101300 0.010200
  CHANNELS 3 Yrotation Xrotation Zrotation
  JOINT LeftKnee
  {
   OFFSET 0.000000 -45.913300 -0.001400
   CHANNELS 3 Yrotation Xrotation Zrotation
   JOINT LeftAnkle
   {
    OFFSET 0.000000 -46.966900 0.018600
    CHANNELS 3 Yrotation Xrotation Zrotation
    JOINT LeftToe
    {
     OFFSET 0.000000 -10.064300 17.850900
     CHANNELS 3 Yrotation Xrotation Zrotation
     End Site
     {
      OFFSET 0.000000 -1.607600 6.976100
     }
    }
   }
  }
 }
}
MOTION
Frames: 15
Frame Time: 0.008333
-280.585170 61.841960 -12.108783 177.722781 -27.065839 0.914779 2.893832 13.599118 4.532149 1.445823 7.773279 2.584100 1.866845 9.705512 3.268612 1.445779 7.773305 2.584127 -7.408019 20.591969 -10.077337 -10.511812 2.192512 -16.138634 14.181854 3.740322 -3.327975 -2.029797 -48.837025 -22.105463 -117.327375 -62.081303 133.039980 -3.408061 -11.384914 -16.973629 -1.529521 1.676306 -3.833799 -5.978187 -34.668773 -3.280979 -55.120521 -36.092187 26.249404 -4.389888 9.730394 38.425306 25.438880 -52.060961 -38.341016 -108.996799 67.483851 -96.267580 6.264107 -5.164055 2.202714 -0.436818 -0.079060 -0.014278 0.881229 -58.158592 2.607510 89.755596 81.853782 87.907281 -6.412685 -7.104177 1.128826 0.195652 0.011379 0.156644
-280.545830 61.833816 -12.177783 177.960928 -27.091291 1.145345 2.904172 13.731573 4.454052 1.487246 7.846945 2.573294 1.919194 9.797365 3.256497 1.487225 7.846930 2.573374 -7.246886 20.696817 -10.029424 -10.241919 2.397506 -16.101397 14.482560 3.690070 -3.401241 0.798448 -48.947145 -23.813461 -115.013387 -64.460960 127.816579 -3.056763 -11.141659 -19.006079 -1.473708 1.807254 -3.861823 -6.042219 -35.082590 -3.309829 -55.302556 -36.292518 26.346442 -4.399729 9.752224 38.405614 25.735104 -51.966922 -38.816856 -109.556315 67.550478 -96.952473 6.040921 -5.261899 2.221369 -0.366371 -0.126031 0.048772 1.103356 -58.071873 2.237254 89.477674 81.943109 87.460785 -6.465864 -7.124327 1.190537 0.162275 0.039860 0.179697
-280.505351 61.831130 -12.246568 178.179251 -27.125352 1.361320 2.922901 13.871585 4.376324 1.514375 7.928394 2.558294 1.953572 9.899038 3.238774 1.514333 7.928346 2.558336 -7.066550 20.794939 -9.958132 -9.943721 2.591462 -16.026877 14.832084 3.551435 -3.508665 3.405910 -48.869972 -25.506495 -110.613291 -65.851441 120.877757 -2.844054 -10.830942 -20.785383 -1.383627 1.901531 -3.863529 -6.104588 -35.428476 -3.349140 -55.447313 -36.526036 26.475349 -4.406860 9.775416 38.398851 25.985905 -51.858009 -39.221855 -110.040492 67.614476 -97.581242 5.901598 -5.373952 2.289419 -0.371076 -0.159673 0.069176 1.256592 -57.972271 1.955004 89.163737 82.052744 86.964834 -6.520722 -7.132036 1.192214 0.147862 0.058265 0.253405
-280.468221 61.833621 -12.313782 178.414259 -27.163384 1.559434 2.922068 14.019557 4.287497 1.532471 8.017533 2.539145 1.976556 10.010376 3.215639 1.532451 8.017518 2.539159 -6.874011 20.879693 -9.860938 -9.629872 2.761389 -15.908350 15.200204 3.306096 -3.646795 4.922932 -48.848247 -26.587676 -104.619039 -65.921067 113.331116 -2.732559 -10.702113 -22.068640 -1.275320 1.948439 -3.841776 -6.176529 -35.708882 -3.395265 -55.566945 -36.790752 26.638940 -4.412006 9.801944 38.408219 26.205103 -51.744295 -39.594166 -110.479470 67.649532 -98.180313 5.788717 -5.474235 2.375152 -0.383301 -0.199243 0.084450 1.329956 -57.865221 1.729038 88.791095 82.172066 86.387501 -6.591601 -7.133426 1.233565 0.184059 0.080928 0.273024
-280.436425 61.840368 -12.377263 178.662976 -27.195845 1.746727 2.909238 14.176657 4.185017 1.547325 8.112416 2.515559 1.995429 10.128997 3.187055 1.547333 8.112448 2.515563 -6.675945 20.942273 -9.734657 -9.312405 2.890595 -15.738133 15.554777 2.985114 -3.801845 5.221993 -48.924707 -26.915185 -99.200913 -64.994650 107.409778 -2.628360 -10.861494 -22.816577 -1.161428 1.946115 -3.801624 -6.274035 -35.940942 -3.435461 -55.663776 -37.078929 26.826793 -4.416223 9.829472 38.433551 26.416918 -51.628392 -39.957011 -110.867451 67.649163 -98.734808 5.667041 -5.557468 2.533724 -0.372502 -0.243736 0.040449 1.338783 -57.763633 1.538394 88.341586 82.305587 85.715284 -6.642887 -7.118568 1.273404 0.225788 0.096860 0.289280
-280.409862 61.849734 -12.433693 178.921342 -27.206841 1.924615 2.897282 14.337993 4.079696 1.564600 8.212938 2.488287 2.017277 10.254706 3.153985 1.564604 8.213002 2.488301 -6.485694 20.971388 -9.579846 -9.014465 2.957045 -15.513175 15.880538 2.646159 -3.958278 4.945198 -48.861342 -26.881693 -96.155693 -63.887934 104.360065 -2.400044 -11.234879 -23.139502 -1.060682 1.894249 -3.753393 -6.415133 -36.149578 -3.449678 -55.737025 -37.380812 27.026357 -4.416507 9.855414 38.478871 26.640374 -51.525408 -40.318984 -111.199236 67.607340 -99.237487 5.559479 -5.628287 2.705366 -0.366636 -0.286091 -0.005063 1.294989 -57.684731 1.372657 87.782193 82.445746 84.920546 -6.671359 -7.084690 1.309641 0.261765 0.107049 0.302048
-280.397478 61.859335 -12.477674 179.208275 -27.170566 2.122557 2.878338 14.494829 3.946264 1.590412 8.321366 2.459565 2.049845 10.390230 3.119236 1.590388 8.321454 2.459629 -6.322440 20.953401 -9.400684 -8.768563 2.933839 -15.235177 16.167286 2.332387 -4.106678 4.563337 -48.560439 -26.750478 -95.868870 -63.361383 104.114907 -2.076779 -11.626402 -23.048865 -1.001578 1.781588 -3.704583 -6.610986 -36.360193 -3.417089 -55.796201 -37.695788 27.228460 -4.411111 9.882014 38.540869 26.917284 -51.445282 -40.752827 -111.475862 67.524596 -99.691883 5.563450 -5.676691 2.755967 -0.458284 -0.339884 0.071821 1.256358 -57.650980 1.146306 87.057118 82.572134 83.956507 -6.755899 -7.050257 1.325012 0.371991 0.144317 0.306959
-280.388163 61.871835 -12.514592 179.504388 -27.108846 2.307191 2.892418 14.681547 3.841670 1.628683 8.438070 2.432484 2.098170 10.535959 3.086887 1.628605 8.438180 2.432546 -6.200323 20.879363 -9.208556 -8.596548 2.803681 -14.920872 16.405935 2.078858 -4.246446 4.036321 -48.213483 -26.513190 -98.042883 -63.750978 106.334951 -1.924810 -11.796892 -22.547035 -1.000408 1.603037 -3.664758 -6.861811 -36.588339 -3.320518 -55.862151 -38.032361 27.428992 -4.401315 9.909844 38.610964 27.202444 -51.388979 -41.189689 -111.708079 67.411118 -100.110228 5.518128 -5.727015 2.856380 -0.486295 -0.375947 0.113592 1.196629 -57.637178 0.913638 86.130082 82.659474 82.801355 -6.804548 -6.996126 1.345301 0.417820 0.167944 0.319198
-280.389256 61.886487 -12.542080 179.809137 -27.008109 2.510452 2.920690 14.881694 3.737540 1.676266 8.555686 2.410777 2.158273 10.682657 3.061612 1.676193 8.555769 2.410827 -6.119181 20.757284 -9.027425 -8.492304 2.581895 -14.614060 16.602648 1.936979 -4.381476 3.254397 -48.021018 -26.212410 -102.152255 -64.750784 110.580434 -2.052979 -11.704969 -21.774866 -1.045556 1.398280 -3.656573 -7.152312 -36.833818 -3.151105 -55.957855 -38.400191 27.630907 -4.390713 9.933756 38.680166 27.540301 -51.352688 -41.688927 -111.903474 67.278183 -100.497795 5.466229 -5.770706 2.990046 -0.502595 -0.406661 0.129704 1.213051 -57.653131 0.575454 84.984111 82.695525 81.464134 -6.880624 -6.936923 1.346747 0.460442 0.196047 0.350465
-280.397665 61.902832 -12.559277 -179.883692 -26.861552 2.722820 2.950854 15.067818 3.642002 1.723373 8.660328 2.395742 2.217774 10.813137 3.044628 1.723320 8.660369 2.395773 -6.064722 20.611176 -8.881399 -8.425032 2.314186 -14.362852 16.763296 1.932619 -4.502681 2.261380 -48.039955 -25.910751 -107.172167 -65.737499 115.865238 -2.317799 -11.589699 -20.905434 -1.111876 1.237055 -3.692535 -7.448186 -37.084685 -2.914305 -56.103132 -38.807282 27.840955 -4.380883 9.951634 38.741343 27.931798 -51.343421 -42.235910 -112.058907 67.136569 -100.845477 5.409535 -5.807508 3.125327 -0.515622 -0.430559 0.149066 1.330098 -57.704162 0.122104 83.632410 82.682356 79.974511 -6.962617 -6.884015 1.339628 0.494553 0.241869 0.379364
-280.411046 61.920665 -12.566373 -179.578204 -26.667922 2.934371 2.967901 15.217464 3.553952 1.758732 8.740993 2.383791 2.262451 10.913826 3.031059 1.758635 8.741025 2.383745 -6.013505 20.467887 -8.782767 -8.350617 2.051734 -14.196852 16.881042 2.029520 -4.589280 1.195148 -48.228484 -25.614957 -111.749405 -66.305891 120.846290 -2.573932 -11.672975 -20.079216 -1.174553 1.165692 -3.759720 -7.696444 -37.313448 -2.635148 -56.310663 -39.260323 28.066840 -4.375387 9.963632 38.795040 28.375185 -51.362489 -42.813861 -112.171375 66.994019 -101.144463 5.333309 -5.832709 3.263369 -0.518120 -0.448602 0.171872 1.529711 -57.793593 -0.415220 82.131122 82.632268 78.387185 -7.055694 -6.837971 1.326575 0.530582 0.308407 0.393168
-280.436623 61.939778 -12.563079 -179.217826 -26.429561 3.144245 2.892656 15.315093 3.429891 1.775243 8.794822 2.369976 2.283325 10.981145 3.014606 1.775172 8.794879 2.369944 -5.944086 20.348915 -8.731922 -8.231244 1.835615 -14.123565 16.961281 2.178043 -4.628263 0.136320 -48.541473 -25.290010 -114.974152 -66.348031 124.656644 -2.757247 -11.927373 -19.390073 -1.219421 1.186122 -3.833154 -7.842441 -37.475712 -2.353261 -56.592534 -39.760698 28.325717 -4.372657 9.969402 38.845329 28.839021 -51.396213 -43.461871 -112.245387 66.863599 -101.401529 5.247820 -5.821739 3.417380 -0.528117 -0.487727 0.184927 1.763701 -57.926425 -1.048227 80.599209 82.553887 76.796055 -7.191426 -6.825274 1.264233 0.622074 0.411199 0.458954
-280.457486 61.962986 -12.559280 -178.915636 -26.184577 3.325857 2.835813 15.385370 3.335820 1.771250 8.825012 2.352241 2.278190 11.018966 2.992518 1.771268 8.825084 2.352251 -5.848351 20.271337 -8.720343 -8.055436 1.698146 -14.130256 17.013597 2.365637 -4.622372 -0.950839 -48.984375 -24.830947 -116.673904 -65.969548 127.192653 -2.873788 -12.208196 -18.846236 -1.246021 1.273142 -3.888576 -7.855082 -37.530324 -2.109920 -56.953937 -40.300509 28.640910 -4.366832 9.970998 38.897988 29.313665 -51.438904 -44.041956 -112.294269 66.745084 -101.624121 5.161170 -5.820900 3.588544 -0.548747 -0.506981 0.186064 1.961603 -58.068928 -1.578335 79.126557 82.472582 75.268849 -7.302390 -6.777649 1.244005 0.705706 0.482728 0.459726
-280.477318 61.988828 -12.554729 -178.622780 -25.936445 3.462465 2.752305 15.417692 3.257418 1.748855 8.837547 2.330676 2.249688 11.034818 2.964950 1.748883 8.837573 2.330673 -5.730635 20.246387 -8.735654 -7.835489 1.659947 -14.193169 17.049511 2.595424 -4.583985 -2.082747 -49.534621 -24.170541 -117.149667 -65.410852 128.709051 -2.958663 -12.432970 -18.393020 -1.255894 1.398276 -3.910982 -7.739413 -37.459705 -1.935522 -57.377810 -40.864828 29.025117 -4.358078 9.970405 38.958835 29.774071 -51.480781 -44.555578 -112.319589 66.623426 -101.798741 5.051824 -5.805634 3.757922 -0.552373 -0.529492 0.194289 2.052235 -58.227841 -1.980481 77.780600 82.412089 73.848763 -7.398603 -6.722083 1.224629 0.767987 0.534437 0.479049
-280.498538 62.016921 -12.551979 -178.346872 -25.699702 3.557408 2.652195 15.422080 3.192425 1.712757 8.840406 2.307503 2.203954 11.038788 2.935034 1.712745 8.840403 2.307513 -5.602486 20.272408 -8.765850 -7.595967 1.717218 -14.286744 17.089806 2.845583 -4.534011 -3.138952 -50.087692 -23.408806 -116.907324 -64.908775 129.500131 -3.043275 -12.598256 -18.000338 -1.250993 1.528147 -3.897352 -7.527768 -37.267802 -1.845415 -57.837884 -41.431790 29.476486 -4.347384 9.966006 39.030709 30.196680 -51.511753 -44.990508 -112.313425 66.513806 -101.922800 4.932616 -5.780187 3.928642 -0.555421 -0.552319 0.200940 2.031565 -58.392306 -2.248025 76.573761 82.388164 72.540884 -7.452533 -6.655201 1.201941 0.823254 0.564043 0.509232
